<mxfile host="app.diagrams.net" modified="2023-10-08T16:50:19.244Z" agent="Mozilla/5.0 (Windows NT 10.0; Win64; x64) AppleWebKit/537.36 (KHTML, like Gecko) Chrome/117.0.0.0 Safari/537.36" version="22.0.4" etag="AwE3ylCUMd_nGFtdFMOw" type="github">
  <diagram name="Страница — 1" id="QKT6WsH2Z0uWWN3aXLzz">
    <mxGraphModel>
      <root>
        <mxCell id="0" />
        <mxCell id="1" parent="0" />
      </root>
    </mxGraphModel>
  </diagram>
</mxfile>
